<svg width="382" height="77" viewBox="0 0 382 77" fill="none" xmlns="http://www.w3.org/2000/svg">
<path fill-rule="evenodd" clip-rule="evenodd" d="M191 40C207.565 40 221.778 29.9311 227.852 15.5798C231.498 6.96813 233.32 2.66227 235.329 1.33114C237.338 0 240.559 0 247 0H346C362.971 0 371.456 0 376.728 5.27208C382 10.5442 382 19.0294 382 36V41C382 57.9706 382 66.4558 376.728 71.7279C371.456 77 362.971 77 346 77H36C19.0294 77 10.5442 77 5.27208 71.7279C0 66.4558 0 57.9706 0 41V36C0 19.0294 0 10.5442 5.27208 5.27208C10.5442 0 19.0294 0 36 0H135C141.441 0 144.662 0 146.671 1.33114C148.68 2.66227 150.502 6.96813 154.148 15.5798C160.222 29.9311 174.435 40 191 40Z" fill="#662CEB"/>
</svg>
